#!OML:ASF F:\VICON\USERDATA\INSTALL\rory3\rory3.ASF
:FULLY-SPECIFIED
:DEGREES
96
root 0.732785 15.7938 -3.06488 3.22692 -0.844076 4.46969
lowerback 23.4099 0.783409 -4.26972
upperback 3.7998 -0.226544 -1.89702
thorax -8.86357 -0.00686457 0.425679
lowerneck -11.5765 -2.32143 -8.11136
upperneck -1.85667 -2.22649 9.05024
head 1.51718 -0.855811 3.95424
rclavicle -1.25731e-014 1.37161e-014
rhumerus -26.0421 -5.56339 -76.4734
rradius 37.2959
rwrist 15.0394
rhand -22.0723 -0.424398
rfingers 7.12502
rthumb 4.33899 -30.3599
lclavicle -1.25731e-014 1.37161e-014
lhumerus -29.4307 8.17782 75.9762
lradius 30.5142
lwrist -9.09102
lhand -29.8504 19.2201
lfingers 7.12502
lthumb -3.17297 49.1762
rfemur -41.6214 0.902425 11.218
rtibia 79.6011
rfoot -36.5619 -4.33799
rtoes -13.1725
lfemur -39.4725 4.0513 -24.2891
ltibia 75.1267
lfoot -34.071 0.745481
ltoes -5.01306
97
root 0.743125 15.7134 -3.06634 3.17827 -0.853603 4.58098
lowerback 23.611 0.79673 -4.30471
upperback 3.88342 -0.226403 -1.89548
thorax -8.87605 -0.00631911 0.446916
lowerneck -11.6018 -2.34161 -8.12373
upperneck -2.03084 -2.23908 8.97363
head 1.46898 -0.864073 3.93252
rclavicle 1.07344e-014 2.78299e-015
rhumerus -25.8736 -6.14968 -76.2824
rradius 37.4064
rwrist 15.0358
rhand -22.2343 -1.17765
rfingers 7.12502
rthumb 4.18252 -31.1163
lclavicle 1.07344e-014 2.78299e-015
lhumerus -29.2406 8.07116 76.0871
lradius 30.6099
lwrist -9.2877
lhand -30.3685 19.0967
lfingers 7.12502
lthumb -3.67335 49.0448
rfemur -42.2594 0.654319 11.0419
rtibia 80.7979
rfoot -36.4914 -4.26568
rtoes -13.6765
lfemur -39.9126 4.12818 -24.4677
ltibia 76.0318
lfoot -34.342 0.74407
ltoes -5.28222
98
root 0.753686 15.6286 -3.0692 3.16979 -0.869586 4.78781
lowerback 23.8116 0.816805 -4.40575
upperback 3.97528 -0.237936 -1.93558
thorax -8.87818 -0.0101819 0.463589
lowerneck -11.7279 -2.39299 -8.22457
upperneck -2.19222 -2.27839 9.03318
head 1.44637 -0.879522 3.96554
rclavicle -4.96962e-017 1.74931e-014
rhumerus -25.6582 -6.60494 -76.136
rradius 37.5207
rwrist 14.9771
rhand -22.4662 -1.66155
rfingers 7.12502
rthumb 3.95855 -31.6045
lclavicle -4.96962e-017 1.74931e-014
lhumerus -29.0344 7.89681 76.1929
lradius 30.869
lwrist -9.38574
lhand -30.8139 19.6156
lfingers 7.12502
lthumb -4.10347 49.5558
rfemur -42.976 0.395947 10.7577
rtibia 82.0224
rfoot -36.2642 -4.29756
rtoes -14.5186
lfemur -40.4318 4.25759 -24.7597
ltibia 76.9592
lfoot -34.651 0.759911
ltoes -5.81622
99
root 0.763243 15.5473 -3.07069 3.13665 -0.879393 4.9837
lowerback 24.0885 0.838542 -4.49187
upperback 4.025 -0.252375 -1.99245
thorax -8.96715 -0.0141983 0.453238
lowerneck -11.8285 -2.40388 -8.26022
upperneck -2.2943 -2.27643 9.07835
head 1.43291 -0.875308 3.98545
rclavicle 9.34288e-015 1.14301e-014
rhumerus -25.5292 -7.03892 -76.016
rradius 37.6155
rwrist 14.8876
rhand -22.9366 -0.928578
rfingers 7.12502
rthumb 3.50431 -30.8795
lclavicle 9.34288e-015 1.14301e-014
lhumerus -28.8762 7.67712 76.2491
lradius 31.1199
lwrist -9.41612
lhand -30.9709 19.9943
lfingers 7.12502
lthumb -4.25501 49.9316
rfemur -43.6606 0.126613 10.5148
rtibia 83.2105
rfoot -36.0899 -4.38393
rtoes -14.8825
lfemur -40.8708 4.41747 -25.0208
ltibia 77.8791
lfoot -35.0034 0.538222
ltoes -5.77819
100
root 0.772457 15.4671 -3.07115 3.05014 -0.926932 5.19429
lowerback 24.4145 0.877532 -4.65154
upperback 4.06278 -0.265679 -2.02837
thorax -9.09413 -0.014373 0.507217
lowerneck -11.8386 -2.36969 -8.15408
upperneck -2.49065 -2.23037 8.91753
head 1.36768 -0.857191 3.92156
rclavicle 2.68359e-015 2.14687e-014
rhumerus -25.4188 -7.43244 -75.8945
rradius 37.7307
rwrist 14.8139
rhand -22.9464 -0.545639
rfingers 7.12502
rthumb 3.49482 -30.4967
lclavicle 2.68359e-015 2.14687e-014
lhumerus -28.7232 7.41472 76.363
lradius 31.2173
lwrist -9.11414
lhand -31.3381 19.6764
lfingers 7.12502
lthumb -4.60965 49.6063
rfemur -44.249 -0.0850829 10.2396
rtibia 84.3651
rfoot -36.5438 -4.12448
rtoes -14.0279
lfemur -41.2169 4.62269 -25.2971
ltibia 78.7813
lfoot -35.3491 0.229909
ltoes -5.27046
101
root 0.779374 15.384 -3.07062 2.99545 -0.948268 5.24121
lowerback 24.7203 0.885736 -4.68218
upperback 4.04427 -0.282221 -2.01099
thorax -9.27372 -0.0175318 0.547217
lowerneck -11.7726 -2.31532 -8.06564
upperneck -2.66102 -2.16182 8.7383
head 1.29637 -0.829654 3.85627
rclavicle -1.93815e-015 -8.84592e-015
rhumerus -25.3837 -7.74873 -75.7624
rradius 37.839
rwrist 14.8363
rhand -22.742 -0.875518
rfingers 7.12502
rthumb 3.69228 -30.8233
lclavicle -1.93815e-015 -8.84592e-015
lhumerus -28.674 7.22172 76.4383
lradius 31.248
lwrist -8.93008
lhand -31.8004 19.4573
lfingers 7.12502
lthumb -5.05601 49.377
rfemur -44.8274 -0.252672 10.1417
rtibia 85.4918
rfoot -36.0754 -4.27636
rtoes -15.9079
lfemur -41.669 4.80406 -25.3765
ltibia 79.7064
lfoot -35.6331 0.0446653
ltoes -5.12724
102
root 0.786977 15.302 -3.07083 2.91651 -0.920935 5.34966
lowerback 24.986 0.883637 -4.7229
upperback 4.06928 -0.31342 -2.02551
thorax -9.38279 -0.0293333 0.563109
lowerneck -11.731 -2.27704 -8.09727
upperneck -2.82112 -2.10131 8.75713
head 1.23796 -0.800156 3.8711
rclavicle 6.11263e-015 -4.57205e-015
rhumerus -25.2591 -8.15596 -75.6394
rradius 37.8214
rwrist 14.8686
rhand -22.5684 -1.07718
rfingers 7.12502
rthumb 3.85992 -31.022
lclavicle 6.11263e-015 -4.57205e-015
lhumerus -28.5265 7.18485 76.4496
lradius 31.2562
lwrist -8.92055
lhand -32.0296 19.5923
lfingers 7.12502
lthumb -5.27732 49.5066
rfemur -45.4103 -0.535058 9.97272
rtibia 86.6138
rfoot -36.5245 -3.67983
rtoes -14.4258
lfemur -42.1007 4.95104 -25.5278
ltibia 80.6065
lfoot -35.9166 -0.0661774
ltoes -5.22415
103
root 0.797243 15.2311 -3.06851 2.80112 -0.845639 5.49715
lowerback 25.2017 0.873805 -4.73936
upperback 4.20683 -0.340143 -2.04542
thorax -9.33913 -0.04378 0.559222
lowerneck -11.9655 -2.31476 -8.11039
upperneck -2.89517 -2.12938 8.73776
head 1.25446 -0.809496 3.86539
rclavicle 7.35503e-015 1.40143e-014
rhumerus -25.0086 -8.67972 -75.5132
rradius 37.9365
rwrist 14.7485
rhand -22.3141 -1.58804
rfingers 7.12502
rthumb 4.10543 -31.5282
lclavicle 7.35503e-015 1.40143e-014
lhumerus -28.2236 7.09473 76.5397
lradius 31.3505
lwrist -8.86314
lhand -32.2463 19.807
lfingers 7.12502
lthumb -5.48655 49.7159
rfemur -45.9433 -0.947058 9.77747
rtibia 87.6743
rfoot -36.2533 -3.68203
rtoes -14.8726
lfemur -42.3962 5.04957 -25.7411
ltibia 81.4391
lfoot -36.233 -0.0326998
ltoes -5.87526
104
root 0.805675 15.1598 -3.07066 2.73052 -0.807796 5.58417
lowerback 25.4468 0.863079 -4.69323
upperback 4.3326 -0.35619 -2.08546
thorax -9.3248 -0.0547974 0.493445
lowerneck -12.1773 -2.37118 -8.04336
upperneck -3.07743 -2.1887 8.67366
head 1.23607 -0.836976 3.83169
rclavicle 8.84592e-015 2.98177e-015
rhumerus -24.7353 -9.16974 -75.4727
rradius 38.0965
rwrist 14.5845
rhand -22.4989 -2.08955
rfingers 7.12502
rthumb 3.92705 -32.0331
lclavicle 8.84592e-015 2.98177e-015
lhumerus -27.8586 6.92235 76.5944
lradius 31.4217
lwrist -8.79306
lhand -32.5888 19.8624
lfingers 7.12502
lthumb -5.81718 49.7626
rfemur -46.6464 -1.33903 9.72061
rtibia 88.7168
rfoot -35.1254 -4.36384
rtoes -17.4609
lfemur -42.7685 5.2149 -25.8775
ltibia 82.2779
lfoot -36.4388 -0.190101
ltoes -5.95025
105
root 0.810949 15.0892 -3.07899 2.79595 -0.768777 5.54988
lowerback 25.7046 0.84126 -4.61131
upperback 4.32285 -0.376395 -2.05514
thorax -9.469 -0.0635213 0.485514
lowerneck -12.24 -2.37228 -8.14853
upperneck -3.21378 -2.16568 8.75871
head 1.20614 -0.82168 3.87672
rclavicle 4.12478e-015 -1.72943e-014
rhumerus -24.578 -9.43514 -75.437
rradius 38.0637
rwrist 14.3385
rhand -23.3873 -1.92854
rfingers 7.12502
rthumb 3.06907 -31.8862
lclavicle 4.12478e-015 -1.72943e-014
lhumerus -27.6106 6.8845 76.6465
lradius 31.3996
lwrist -8.74948
lhand -32.8974 19.3913
lfingers 7.12502
lthumb -6.11514 49.283
rfemur -47.5924 -1.70497 9.82486
rtibia 89.7358
rfoot -34.8807 -4.94128
rtoes -18.9553
lfemur -43.362 5.40983 -25.891
ltibia 83.1584
lfoot -36.5932 -0.247227
ltoes -6.31703
106
root 0.817608 15.0068 -3.08141 2.82257 -0.682568 5.61024
lowerback 26.0097 0.80508 -4.6277
upperback 4.24767 -0.44744 -2.02678
thorax -9.70864 -0.0904553 0.548018
lowerneck -12.1918 -2.30371 -8.21335
upperneck -3.29877 -2.06427 8.7691
head 1.16571 -0.77141 3.89624
rclavicle -1.2424e-015 3.0911e-014
rhumerus -24.5571 -9.45757 -75.3956
rradius 37.9924
rwrist 13.7501
rhand -23.5439 -1.57988
rfingers 7.12502
rthumb 2.91785 -31.5397
lclavicle -1.2424e-015 3.0911e-014
lhumerus -27.5728 6.77299 76.7116
lradius 31.4433
lwrist -8.59155
lhand -33.0936 19.0544
lfingers 7.12502
lthumb -6.30455 48.9406
rfemur -47.9728 -2.07766 9.63976
rtibia 90.7168
rfoot -35.2227 -4.22313
rtoes -18.2248
lfemur -43.9509 5.56354 -26.0278
ltibia 84.1074
lfoot -36.7719 -0.219252
ltoes -6.89916
107
root 0.825426 14.9228 -3.08124 2.77883 -0.605218 5.63955
lowerback 26.3198 0.781157 -4.54627
upperback 4.21903 -0.477114 -2.02811
thorax -9.90127 -0.103035 0.508335
lowerneck -12.114 -2.26295 -8.15173
upperneck -3.51095 -2.01176 8.70296
head 1.08433 -0.749319 3.86958
rclavicle 7.90169e-015 -1.00386e-014
rhumerus -24.5787 -9.729 -75.2725
rradius 38.0821
rwrist 13.6
rhand -23.5359 -0.44639
rfingers 7.12502
rthumb 2.92561 -30.4061
lclavicle 7.90169e-015 -1.00386e-014
lhumerus -27.4707 6.48228 76.8015
lradius 31.5444
lwrist -8.36158
lhand -33.4132 19.1927
lfingers 7.12502
lthumb -6.61313 49.0694
rfemur -48.2196 -2.4312 9.44772
rtibia 91.6679
rfoot -35.5182 -3.23892
rtoes -16.9602
lfemur -44.4682 5.75397 -26.1224
ltibia 85.0827
lfoot -36.9894 -0.293034
ltoes -7.1827
108
root 0.831631 14.8435 -3.08437 2.76324 -0.469553 5.67255
lowerback 26.5508 0.728113 -4.45511
upperback 4.25503 -0.53391 -2.03965
thorax -9.97868 -0.13147 0.46195
lowerneck -12.0651 -2.27722 -8.01986
upperneck -3.87055 -2.04722 8.23757
head 1.08294 -0.783442 4.09315
rclavicle 5.01931e-015 2.15184e-014
rhumerus -24.4662 -10.027 -75.1758
rradius 38.5114
rwrist 14.474
rhand -23.311 -0.618974
rfingers 7.12502
rthumb 3.14275 -30.5756
lclavicle 5.01931e-015 2.15184e-014
lhumerus -27.2014 6.30625 76.8466
lradius 31.5332
lwrist -8.21724
lhand -33.7326 19.1248
lfingers 7.12502
lthumb -6.9214 48.9916
rfemur -48.6592 -2.84818 9.29038
rtibia 92.6355
rfoot -35.603 -2.58121
rtoes -16.5513
lfemur -44.9883 5.85279 -26.2138
ltibia 86.0252
lfoot -37.1852 -0.43036
ltoes -7.2196
109
root 0.835036 14.7693 -3.08947 2.75351 -0.280136 5.74392
lowerback 26.7407 0.676498 -4.42434
upperback 4.32002 -0.600849 -2.0483
thorax -10.0006 -0.163648 0.457522
lowerneck -12.2266 -2.31195 -7.87714
upperneck -3.99303 -2.09442 8.12529
head 1.06981 -0.807409 4.02121
rclavicle 1.30204e-014 4.32357e-015
rhumerus -24.234 -10.2693 -75.1546
rradius 38.6615
rwrist 14.4208
rhand -23.0749 -1.18504
rfingers 7.12502
rthumb 3.37074 -31.1381
lclavicle 1.30204e-014 4.32357e-015
lhumerus -26.8435 6.15599 76.9118
lradius 31.5326
lwrist -8.05067
lhand -33.8973 19.1272
lfingers 7.12502
lthumb -7.08039 48.9887
rfemur -49.2186 -3.34525 9.12039
rtibia 93.648
rfoot -35.5732 -2.26384
rtoes -16.9525
lfemur -45.4833 5.89856 -26.3506
ltibia 86.907
lfoot -37.2839 -0.359834
ltoes -7.82869
